<svg width="34" height="34" viewBox="0 0 34 34" fill="none" xmlns="http://www.w3.org/2000/svg">
<g clip-path="url(#clip0_828_14)">
<path d="M34 17C34 26.3888 30 34 17 34C4 34 0 26.3888 0 17C0 7.61116 4 0 17 0C30 0 34 7.61116 34 17Z" fill="#C83A3A"/>
<path d="M7 7C7 6.44772 7.44772 6 8 6H26C26.5523 6 27 6.44772 27 7V28C27 28.5523 26.5523 29 26 29H8C7.44772 29 7 28.5523 7 28V7Z" fill="white"/>
<path d="M7 7C7 6.44772 7.44772 6 8 6H26C26.5523 6 27 6.44772 27 7V28C27 28.5523 26.5523 29 26 29H8C7.44772 29 7 28.5523 7 28V7Z" fill="white"/>
<path d="M10 19C10 17.3431 11.3431 16 13 16H21C22.6569 16 24 17.3431 24 19V23C24 24.6569 22.6569 26 21 26H13C11.3431 26 10 24.6569 10 23V19Z" fill="#C83A3A"/>
<rect x="7" y="11" width="20" height="1" fill="#C83A3A"/>
<path d="M12 9C12 9.55228 11.5523 10 11 10C10.4477 10 10 9.55228 10 9C10 8.44772 10.4477 8 11 8C11.5523 8 12 8.44772 12 9Z" fill="#B29D81"/>
<path d="M16 9C16 9.55228 15.5523 10 15 10C14.4477 10 14 9.55228 14 9C14 8.44772 14.4477 8 15 8C15.5523 8 16 8.44772 16 9Z" fill="#B29D81"/>
<path d="M20 9C20 9.55228 19.5523 10 19 10C18.4477 10 18 9.55228 18 9C18 8.44772 18.4477 8 19 8C19.5523 8 20 8.44772 20 9Z" fill="#B29D81"/>
<path d="M24 9C24 9.55228 23.5523 10 23 10C22.4477 10 22 9.55228 22 9C22 8.44772 22.4477 8 23 8C23.5523 8 24 8.44772 24 9Z" fill="#B29D81"/>
</g>
<defs>
<clipPath id="clip0_828_14">
<rect width="34" height="34" fill="white"/>
</clipPath>
</defs>
</svg>
