<svg width="270" height="60" viewBox="0 0 270 60" fill="none" xmlns="http://www.w3.org/2000/svg">
<path d="M72 4H100L98 8.99989H73.5C70.5 8.99989 68.5 10.9999 68.5 13.4999C68.5 15.9999 70.5 17.9999 73.5 17.9999L83 17.9999C88.5 17.9999 92.5 21.4999 92.5 27.9999C92.5 34.4999 88.5 37.9998 83 37.9998L4 38L6 32.9999L80.5 32.9997C84 32.9997 85.5 29.9999 85.5 27.9999C85.5 25.9999 84 22.9997 80.5 22.9999C77 23.0001 79 22.9997 72 22.9999C65 23.0001 62.5 17.9999 62.5 13.5001C62.5 9.00023 65 4 72 4Z" fill="#C83A3A"/>
<path d="M17 30.4999L18 28H79L78 30.4999H17Z" fill="#C83A3A"/>
<path fill-rule="evenodd" clip-rule="evenodd" d="M129.5 4H116.5L110.029 12H131.147L129.5 4ZM132 16H107L89 38H104.5L114 25H120.5L124 38H136.5L132 16Z" fill="#C83A3A"/>
<path fill-rule="evenodd" clip-rule="evenodd" d="M145 4H157L155.235 12H143L145 4ZM154.353 16H142L136.5 38H149.5L154.353 16Z" fill="#C83A3A"/>
<path fill-rule="evenodd" clip-rule="evenodd" d="M167 4H193L191.002 12H169.999H157.695C158.224 10.6305 158.681 9.63748 159 9C159.952 7.09449 162.5 4 167 4ZM156.327 16C155.886 17.4528 155.435 19.1168 154.999 21C153.497 27.5 154.002 30.5 154.503 32C155.172 34 157 35.5 158.5 36.5C160 37.5 164.002 38 166.002 38H174.002C179.502 38 183.004 35 185.002 32.5C185.07 32.3972 185.137 32.2991 185.201 32.2037C186.075 30.908 186.605 30.123 188.002 25C188.604 22.7932 190.002 16 190.002 16H174.002L170 24.5H177L176 27C176 27 169.5 27 169 27C168.5 27 167 27 167 26C167 22.1244 169 16 169 16H156.327Z" fill="#C83A3A"/>
<path fill-rule="evenodd" clip-rule="evenodd" d="M246.5 4H234.5L232.956 11L232.735 12H265.235L267 4H255.5L254 11L246.5 4ZM264.353 16H231.853L227 38H238.5L243 18L251 25.5L248 38H259.5L264.353 16Z" fill="#C83A3A"/>
<path d="M227 21C227 30.3888 223 38 210 38C197 38 193 30.3888 193 21C193 11.6112 197 4 210 4C223 4 227 11.6112 227 21Z" fill="#C83A3A"/>
<path d="M200 11C200 10.4477 200.448 10 201 10H219C219.552 10 220 10.4477 220 11V32C220 32.5523 219.552 33 219 33H201C200.448 33 200 32.5523 200 32V11Z" fill="white"/>
<path d="M200 11C200 10.4477 200.448 10 201 10H219C219.552 10 220 10.4477 220 11V32C220 32.5523 219.552 33 219 33H201C200.448 33 200 32.5523 200 32V11Z" fill="white"/>
<path d="M203 23C203 21.3431 204.343 20 206 20H214C215.657 20 217 21.3431 217 23V27C217 28.6569 215.657 30 214 30H206C204.343 30 203 28.6569 203 27V23Z" fill="#C83A3A"/>
<rect x="200" y="15" width="20" height="1" fill="#C83A3A"/>
<path d="M205 13C205 13.5523 204.552 14 204 14C203.448 14 203 13.5523 203 13C203 12.4477 203.448 12 204 12C204.552 12 205 12.4477 205 13Z" fill="#B29D81"/>
<path d="M209 13C209 13.5523 208.552 14 208 14C207.448 14 207 13.5523 207 13C207 12.4477 207.448 12 208 12C208.552 12 209 12.4477 209 13Z" fill="#B29D81"/>
<path d="M213 13C213 13.5523 212.552 14 212 14C211.448 14 211 13.5523 211 13C211 12.4477 211.448 12 212 12C212.552 12 213 12.4477 213 13Z" fill="#B29D81"/>
<path d="M217 13C217 13.5523 216.552 14 216 14C215.448 14 215 13.5523 215 13C215 12.4477 215.448 12 216 12C216.552 12 217 12.4477 217 13Z" fill="#B29D81"/>
<path d="M4 57V43H5.53061V48.56C5.89796 48.08 6.34694 47.6733 6.87755 47.34C7.40816 47.0067 8.08844 46.84 8.91837 46.84C9.62585 46.84 10.2857 47.0067 10.898 47.34C11.5238 47.66 12.0272 48.1467 12.4082 48.8C12.8027 49.44 13 50.2333 13 51.18V57H11.4694V51.22C11.4694 50.3133 11.2041 49.5867 10.6735 49.04C10.1429 48.48 9.45578 48.2 8.61224 48.2C8.04082 48.2 7.52381 48.3267 7.06122 48.58C6.59864 48.8333 6.22449 49.1933 5.93878 49.66C5.66667 50.1133 5.53061 50.64 5.53061 51.24V57H4Z" fill="#C83A3A"/>
<path d="M34 57C32.9785 57 32.0914 56.7804 31.3387 56.3411C30.586 55.8889 30.0081 55.2817 29.6048 54.5194C29.2016 53.7571 29 52.9173 29 52C29 51.0698 29.2016 50.23 29.6048 49.4806C30.0081 48.7183 30.586 48.1176 31.3387 47.6783C32.0914 47.2261 32.9785 47 34 47C35.0349 47 35.922 47.2261 36.6613 47.6783C37.414 48.1176 37.9919 48.7183 38.3952 49.4806C38.7984 50.23 39 51.0698 39 52C39 52.9173 38.7984 53.7571 38.3952 54.5194C37.9919 55.2817 37.414 55.8889 36.6613 56.3411C35.922 56.7804 35.0349 57 34 57ZM34 55.6822C34.7527 55.6822 35.3844 55.5142 35.8952 55.1783C36.4194 54.8424 36.8159 54.3966 37.0847 53.8411C37.3535 53.2726 37.4879 52.6589 37.4879 52C37.4879 51.3282 37.3535 50.7145 37.0847 50.1589C36.8159 49.6034 36.4194 49.1576 35.8952 48.8217C35.3844 48.4858 34.7527 48.3178 34 48.3178C33.2608 48.3178 32.629 48.4858 32.1048 48.8217C31.5806 49.1576 31.1841 49.6034 30.9153 50.1589C30.6465 50.7145 30.5121 51.3282 30.5121 52C30.5121 52.6589 30.6465 53.2726 30.9153 53.8411C31.1841 54.3966 31.5806 54.8424 32.1048 55.1783C32.629 55.5142 33.2608 55.6822 34 55.6822Z" fill="#C83A3A"/>
<path d="M55 57V47.1575H56.5141V48.6535C56.7429 48.2598 57.1063 47.8858 57.6043 47.5315C58.1023 47.1772 58.7618 47 59.5828 47C60.2557 47 60.8748 47.1772 61.4401 47.5315C62.0188 47.8727 62.4697 48.3583 62.7927 48.9882C62.9273 48.7651 63.1359 48.4961 63.4186 48.1811C63.7147 47.8661 64.0983 47.5906 64.5693 47.3543C65.0404 47.1181 65.6057 47 66.2651 47C66.9112 47 67.5168 47.164 68.0821 47.4921C68.6474 47.8202 69.105 48.2927 69.4549 48.9094C69.8183 49.5131 70 50.2283 70 51.0551V57H68.4859V51.0945C68.4859 50.2677 68.2436 49.605 67.7591 49.1063C67.288 48.5945 66.6958 48.3386 65.9825 48.3386C65.2423 48.3386 64.603 48.5814 64.0646 49.0669C63.5262 49.5525 63.2571 50.2349 63.2571 51.1142V57H61.7429V51.0945C61.7429 50.2677 61.5007 49.605 61.0162 49.1063C60.5451 48.5945 59.9529 48.3386 59.2396 48.3386C58.4993 48.3386 57.86 48.5814 57.3217 49.0669C56.7833 49.5525 56.5141 50.2349 56.5141 51.1142V57H55Z" fill="#C83A3A"/>
<path d="M91.1008 57C90.0793 57 89.1855 56.7804 88.4194 56.3411C87.6532 55.8889 87.0551 55.2817 86.625 54.5194C86.2083 53.7571 86 52.9173 86 52C86 51.0698 86.2016 50.23 86.6048 49.4806C87.0081 48.7183 87.586 48.1176 88.3387 47.6783C89.0914 47.2261 89.9785 47 91 47C92.0349 47 92.922 47.2261 93.6613 47.6783C94.414 48.1176 94.9919 48.7183 95.3952 49.4806C95.7984 50.23 96 51.0698 96 52V52.5814H87.5524C87.6331 53.1499 87.8212 53.6731 88.1169 54.1512C88.4261 54.6163 88.836 54.991 89.3468 55.2752C89.8575 55.5465 90.4489 55.6822 91.121 55.6822C91.8333 55.6822 92.4315 55.5336 92.9153 55.2364C93.3992 54.9264 93.7755 54.5323 94.0444 54.0543H95.6976C95.3481 54.9199 94.7903 55.6305 94.0242 56.186C93.2715 56.7287 92.297 57 91.1008 57ZM87.5726 51.2248H94.4274C94.293 50.3979 93.9301 49.7067 93.3387 49.1512C92.7473 48.5956 91.9677 48.3178 91 48.3178C90.0323 48.3178 89.2527 48.5956 88.6613 49.1512C88.0833 49.7067 87.7204 50.3979 87.5726 51.2248Z" fill="#C83A3A"/>
<path d="M112 57V43H113.548V51.96L118.523 47H120.69L116.541 50.94L121 57H119.101L115.489 51.98L113.548 53.84V57H112Z" fill="#C83A3A"/>
<path d="M137 45.0117V43H139V45.0117H137ZM137.074 57V46.7361H138.926V57H137.074Z" fill="#C83A3A"/>
<path d="M157.096 57V48.0515H155V46.6907H157.096V43H158.637V46.6907H161V48.0515H158.637V57H157.096Z" fill="#C83A3A"/>
<path d="M182.104 57C181.066 57 180.167 56.7804 179.407 56.3411C178.646 55.8889 178.051 55.2817 177.622 54.5194C177.207 53.7571 177 52.9173 177 52C177 51.0698 177.207 50.23 177.622 49.4806C178.051 48.7183 178.646 48.1176 179.407 47.6783C180.167 47.2261 181.066 47 182.104 47C183.335 47 184.379 47.2972 185.237 47.8915C186.108 48.4858 186.696 49.2545 187 50.1977H185.32C185.084 49.6421 184.704 49.1899 184.178 48.8411C183.667 48.4922 183.044 48.3178 182.311 48.3178C181.55 48.3178 180.887 48.4858 180.32 48.8217C179.752 49.1576 179.317 49.6034 179.012 50.1589C178.708 50.7145 178.556 51.3282 178.556 52C178.556 52.6589 178.708 53.2726 179.012 53.8411C179.317 54.3966 179.752 54.8424 180.32 55.1783C180.887 55.5142 181.55 55.6822 182.311 55.6822C183.044 55.6822 183.667 55.5078 184.178 55.1589C184.704 54.8101 185.084 54.3579 185.32 53.8023H187C186.696 54.7455 186.108 55.5142 185.237 56.1085C184.379 56.7028 183.335 57 182.104 57Z" fill="#C83A3A"/>
<path d="M203 57V43H204.531V48.56C204.898 48.08 205.347 47.6733 205.878 47.34C206.408 47.0067 207.088 46.84 207.918 46.84C208.626 46.84 209.286 47.0067 209.898 47.34C210.524 47.66 211.027 48.1467 211.408 48.8C211.803 49.44 212 50.2333 212 51.18V57H210.469V51.22C210.469 50.3133 210.204 49.5867 209.673 49.04C209.143 48.48 208.456 48.2 207.612 48.2C207.041 48.2 206.524 48.3267 206.061 48.58C205.599 48.8333 205.224 49.1933 204.939 49.66C204.667 50.1133 204.531 50.64 204.531 51.24V57H203Z" fill="#C83A3A"/>
<path d="M233.101 57C232.079 57 231.185 56.7804 230.419 56.3411C229.653 55.8889 229.055 55.2817 228.625 54.5194C228.208 53.7571 228 52.9173 228 52C228 51.0698 228.202 50.23 228.605 49.4806C229.008 48.7183 229.586 48.1176 230.339 47.6783C231.091 47.2261 231.978 47 233 47C234.035 47 234.922 47.2261 235.661 47.6783C236.414 48.1176 236.992 48.7183 237.395 49.4806C237.798 50.23 238 51.0698 238 52V52.5814H229.552C229.633 53.1499 229.821 53.6731 230.117 54.1512C230.426 54.6163 230.836 54.991 231.347 55.2752C231.858 55.5465 232.449 55.6822 233.121 55.6822C233.833 55.6822 234.431 55.5336 234.915 55.2364C235.399 54.9264 235.776 54.5323 236.044 54.0543H237.698C237.348 54.9199 236.79 55.6305 236.024 56.186C235.272 56.7287 234.297 57 233.101 57ZM229.573 51.2248H236.427C236.293 50.3979 235.93 49.7067 235.339 49.1512C234.747 48.5956 233.968 48.3178 233 48.3178C232.032 48.3178 231.253 48.5956 230.661 49.1512C230.083 49.7067 229.72 50.3979 229.573 51.2248Z" fill="#C83A3A"/>
<path d="M254 57V47.1575H255.531V48.6929C255.898 48.2205 256.347 47.8202 256.878 47.4921C257.408 47.164 258.088 47 258.918 47C259.626 47 260.286 47.164 260.898 47.4921C261.524 47.8071 262.027 48.2861 262.408 48.9291C262.803 49.5591 263 50.3399 263 51.2717V57H261.469V51.311C261.469 50.4186 261.204 49.7034 260.673 49.1654C260.143 48.6142 259.456 48.3386 258.612 48.3386C258.041 48.3386 257.524 48.4633 257.061 48.7126C256.599 48.9619 256.224 49.3163 255.939 49.7756C255.667 50.2218 255.531 50.7402 255.531 51.3307V57H254Z" fill="#C83A3A"/>
</svg>
